<mxfile host="app.diagrams.net" agent="Mozilla/5.0 (Windows NT 10.0; Win64; x64) AppleWebKit/537.36 (KHTML, like Gecko) Chrome/131.0.0.0 Safari/537.36" version="25.0.3">
  <diagram name="Order Processing BPMN" id="rd7N2ADgP0BqzEK0l8f2">
    <mxGraphModel dx="1221" dy="725" grid="1" gridSize="10" guides="1" tooltips="1" connect="1" arrows="1" fold="1" page="1" pageScale="1" pageWidth="827" pageHeight="1169" math="0" shadow="0">
      <root>
        <mxCell id="0" />
        <mxCell id="1" parent="0" />
        <mxCell id="YpoTtZVR7BKUe61PlGft-35" value="Receive Orders" style="rounded=1;whiteSpace=wrap;html=1;" vertex="1" parent="1">
          <mxGeometry x="220" y="100" width="140" height="60" as="geometry" />
        </mxCell>
        <mxCell id="YpoTtZVR7BKUe61PlGft-36" value="Validate Customer Details" style="rounded=1;whiteSpace=wrap;html=1;" vertex="1" parent="1">
          <mxGeometry x="400" y="100" width="140" height="60" as="geometry" />
        </mxCell>
        <mxCell id="YpoTtZVR7BKUe61PlGft-37" value="Decision" style="rhombus;whiteSpace=wrap;html=1;" vertex="1" parent="1">
          <mxGeometry x="580" y="100" width="80" height="40" as="geometry" />
        </mxCell>
        <mxCell id="YpoTtZVR7BKUe61PlGft-38" value="Record Flight Details" style="rounded=1;whiteSpace=wrap;html=1;" vertex="1" parent="1">
          <mxGeometry x="720" y="60" width="140" height="60" as="geometry" />
        </mxCell>
        <mxCell id="YpoTtZVR7BKUe61PlGft-39" value="Request More Info" style="rounded=1;whiteSpace=wrap;html=1;" vertex="1" parent="1">
          <mxGeometry x="720" y="140" width="140" height="60" as="geometry" />
        </mxCell>
        <mxCell id="YpoTtZVR7BKUe61PlGft-42" edge="1" parent="1" source="YpoTtZVR7BKUe61PlGft-35" target="YpoTtZVR7BKUe61PlGft-36">
          <mxGeometry relative="1" as="geometry" />
        </mxCell>
        <mxCell id="YpoTtZVR7BKUe61PlGft-43" edge="1" parent="1" source="YpoTtZVR7BKUe61PlGft-36" target="YpoTtZVR7BKUe61PlGft-37">
          <mxGeometry relative="1" as="geometry" />
        </mxCell>
        <mxCell id="YpoTtZVR7BKUe61PlGft-44" edge="1" parent="1" source="YpoTtZVR7BKUe61PlGft-37" target="YpoTtZVR7BKUe61PlGft-38">
          <mxGeometry relative="1" as="geometry" />
        </mxCell>
        <mxCell id="YpoTtZVR7BKUe61PlGft-45" edge="1" parent="1" source="YpoTtZVR7BKUe61PlGft-37" target="YpoTtZVR7BKUe61PlGft-39">
          <mxGeometry relative="1" as="geometry" />
        </mxCell>
        <mxCell id="YpoTtZVR7BKUe61PlGft-46" edge="1" parent="1" source="YpoTtZVR7BKUe61PlGft-38" target="YpoTtZVR7BKUe61PlGft-72">
          <mxGeometry relative="1" as="geometry">
            <mxPoint x="883.6816246199842" y="111.61883645076557" as="targetPoint" />
          </mxGeometry>
        </mxCell>
        <mxCell id="YpoTtZVR7BKUe61PlGft-48" value="Analyze Order Requirements" style="rounded=1;whiteSpace=wrap;html=1;" vertex="1" parent="1">
          <mxGeometry x="220" y="300" width="140" height="60" as="geometry" />
        </mxCell>
        <mxCell id="YpoTtZVR7BKUe61PlGft-49" value="Decision" style="rhombus;whiteSpace=wrap;html=1;" vertex="1" parent="1">
          <mxGeometry x="400" y="300" width="80" height="40" as="geometry" />
        </mxCell>
        <mxCell id="YpoTtZVR7BKUe61PlGft-50" value="Send to Production" style="rounded=1;whiteSpace=wrap;html=1;" vertex="1" parent="1">
          <mxGeometry x="520" y="260" width="140" height="60" as="geometry" />
        </mxCell>
        <mxCell id="YpoTtZVR7BKUe61PlGft-51" value="Update Inventory System" style="rounded=1;whiteSpace=wrap;html=1;" vertex="1" parent="1">
          <mxGeometry x="520" y="340" width="140" height="60" as="geometry" />
        </mxCell>
        <mxCell id="YpoTtZVR7BKUe61PlGft-54" edge="1" parent="1" source="YpoTtZVR7BKUe61PlGft-48" target="YpoTtZVR7BKUe61PlGft-49">
          <mxGeometry relative="1" as="geometry" />
        </mxCell>
        <mxCell id="YpoTtZVR7BKUe61PlGft-55" edge="1" parent="1" source="YpoTtZVR7BKUe61PlGft-49" target="YpoTtZVR7BKUe61PlGft-50">
          <mxGeometry relative="1" as="geometry" />
        </mxCell>
        <mxCell id="YpoTtZVR7BKUe61PlGft-56" edge="1" parent="1" source="YpoTtZVR7BKUe61PlGft-49" target="YpoTtZVR7BKUe61PlGft-51">
          <mxGeometry relative="1" as="geometry" />
        </mxCell>
        <mxCell id="YpoTtZVR7BKUe61PlGft-57" edge="1" parent="1" source="YpoTtZVR7BKUe61PlGft-50">
          <mxGeometry relative="1" as="geometry">
            <mxPoint x="720" y="310" as="targetPoint" />
          </mxGeometry>
        </mxCell>
        <mxCell id="YpoTtZVR7BKUe61PlGft-58" edge="1" parent="1" source="YpoTtZVR7BKUe61PlGft-51">
          <mxGeometry relative="1" as="geometry">
            <mxPoint x="720" y="330" as="targetPoint" />
          </mxGeometry>
        </mxCell>
        <mxCell id="YpoTtZVR7BKUe61PlGft-60" value="Ensure Accuracy" style="rounded=1;whiteSpace=wrap;html=1;" vertex="1" parent="1">
          <mxGeometry x="220" y="500" width="140" height="60" as="geometry" />
        </mxCell>
        <mxCell id="YpoTtZVR7BKUe61PlGft-61" value="Decision" style="rhombus;whiteSpace=wrap;html=1;" vertex="1" parent="1">
          <mxGeometry x="400" y="500" width="80" height="40" as="geometry" />
        </mxCell>
        <mxCell id="YpoTtZVR7BKUe61PlGft-62" value="Validate Order" style="rounded=1;whiteSpace=wrap;html=1;" vertex="1" parent="1">
          <mxGeometry x="520" y="460" width="140" height="60" as="geometry" />
        </mxCell>
        <mxCell id="YpoTtZVR7BKUe61PlGft-63" value="Request Correction" style="rounded=1;whiteSpace=wrap;html=1;" vertex="1" parent="1">
          <mxGeometry x="520" y="540" width="140" height="60" as="geometry" />
        </mxCell>
        <mxCell id="YpoTtZVR7BKUe61PlGft-66" edge="1" parent="1" source="YpoTtZVR7BKUe61PlGft-60" target="YpoTtZVR7BKUe61PlGft-61">
          <mxGeometry relative="1" as="geometry" />
        </mxCell>
        <mxCell id="YpoTtZVR7BKUe61PlGft-67" edge="1" parent="1" source="YpoTtZVR7BKUe61PlGft-61" target="YpoTtZVR7BKUe61PlGft-62">
          <mxGeometry relative="1" as="geometry" />
        </mxCell>
        <mxCell id="YpoTtZVR7BKUe61PlGft-68" edge="1" parent="1" source="YpoTtZVR7BKUe61PlGft-61" target="YpoTtZVR7BKUe61PlGft-63">
          <mxGeometry relative="1" as="geometry" />
        </mxCell>
        <mxCell id="YpoTtZVR7BKUe61PlGft-69" style="entryX=0;entryY=0.5;entryDx=0;entryDy=0;entryPerimeter=0;exitX=1;exitY=0.5;exitDx=0;exitDy=0;" edge="1" parent="1" source="YpoTtZVR7BKUe61PlGft-62" target="YpoTtZVR7BKUe61PlGft-81">
          <mxGeometry relative="1" as="geometry">
            <mxPoint x="683.6816246199769" y="511.61883645076387" as="targetPoint" />
          </mxGeometry>
        </mxCell>
        <mxCell id="YpoTtZVR7BKUe61PlGft-70" style="exitX=1;exitY=0.5;exitDx=0;exitDy=0;entryX=0.145;entryY=0.855;entryDx=0;entryDy=0;entryPerimeter=0;" edge="1" parent="1" source="YpoTtZVR7BKUe61PlGft-63" target="YpoTtZVR7BKUe61PlGft-81">
          <mxGeometry relative="1" as="geometry">
            <mxPoint x="688.2950404358032" y="532.1942152169986" as="targetPoint" />
          </mxGeometry>
        </mxCell>
        <mxCell id="YpoTtZVR7BKUe61PlGft-75" style="edgeStyle=orthogonalEdgeStyle;rounded=0;orthogonalLoop=1;jettySize=auto;html=1;entryX=0;entryY=0.5;entryDx=0;entryDy=0;" edge="1" parent="1" source="YpoTtZVR7BKUe61PlGft-71" target="YpoTtZVR7BKUe61PlGft-35">
          <mxGeometry relative="1" as="geometry" />
        </mxCell>
        <mxCell id="YpoTtZVR7BKUe61PlGft-71" value="" style="points=[[0.145,0.145,0],[0.5,0,0],[0.855,0.145,0],[1,0.5,0],[0.855,0.855,0],[0.5,1,0],[0.145,0.855,0],[0,0.5,0]];shape=mxgraph.bpmn.event;html=1;verticalLabelPosition=bottom;labelBackgroundColor=#ffffff;verticalAlign=top;align=center;perimeter=ellipsePerimeter;outlineConnect=0;aspect=fixed;outline=standard;symbol=general;" vertex="1" parent="1">
          <mxGeometry x="110" y="105" width="50" height="50" as="geometry" />
        </mxCell>
        <mxCell id="YpoTtZVR7BKUe61PlGft-72" value="" style="points=[[0.145,0.145,0],[0.5,0,0],[0.855,0.145,0],[1,0.5,0],[0.855,0.855,0],[0.5,1,0],[0.145,0.855,0],[0,0.5,0]];shape=mxgraph.bpmn.event;html=1;verticalLabelPosition=bottom;labelBackgroundColor=#ffffff;verticalAlign=top;align=center;perimeter=ellipsePerimeter;outlineConnect=0;aspect=fixed;outline=end;symbol=terminate2;" vertex="1" parent="1">
          <mxGeometry x="920" y="100" width="50" height="50" as="geometry" />
        </mxCell>
        <mxCell id="YpoTtZVR7BKUe61PlGft-74" style="exitX=1;exitY=0.5;exitDx=0;exitDy=0;entryX=0.145;entryY=0.855;entryDx=0;entryDy=0;entryPerimeter=0;" edge="1" parent="1" source="YpoTtZVR7BKUe61PlGft-39" target="YpoTtZVR7BKUe61PlGft-72">
          <mxGeometry relative="1" as="geometry">
            <mxPoint x="870" y="116" as="sourcePoint" />
            <mxPoint x="931" y="129" as="targetPoint" />
          </mxGeometry>
        </mxCell>
        <mxCell id="YpoTtZVR7BKUe61PlGft-76" style="edgeStyle=orthogonalEdgeStyle;rounded=0;orthogonalLoop=1;jettySize=auto;html=1;entryX=0;entryY=0.5;entryDx=0;entryDy=0;" edge="1" parent="1" source="YpoTtZVR7BKUe61PlGft-77">
          <mxGeometry relative="1" as="geometry">
            <mxPoint x="220" y="330" as="targetPoint" />
          </mxGeometry>
        </mxCell>
        <mxCell id="YpoTtZVR7BKUe61PlGft-77" value="" style="points=[[0.145,0.145,0],[0.5,0,0],[0.855,0.145,0],[1,0.5,0],[0.855,0.855,0],[0.5,1,0],[0.145,0.855,0],[0,0.5,0]];shape=mxgraph.bpmn.event;html=1;verticalLabelPosition=bottom;labelBackgroundColor=#ffffff;verticalAlign=top;align=center;perimeter=ellipsePerimeter;outlineConnect=0;aspect=fixed;outline=standard;symbol=general;" vertex="1" parent="1">
          <mxGeometry x="110" y="305" width="50" height="50" as="geometry" />
        </mxCell>
        <mxCell id="YpoTtZVR7BKUe61PlGft-78" style="edgeStyle=orthogonalEdgeStyle;rounded=0;orthogonalLoop=1;jettySize=auto;html=1;entryX=0;entryY=0.5;entryDx=0;entryDy=0;" edge="1" parent="1" source="YpoTtZVR7BKUe61PlGft-79">
          <mxGeometry relative="1" as="geometry">
            <mxPoint x="220" y="530" as="targetPoint" />
          </mxGeometry>
        </mxCell>
        <mxCell id="YpoTtZVR7BKUe61PlGft-79" value="" style="points=[[0.145,0.145,0],[0.5,0,0],[0.855,0.145,0],[1,0.5,0],[0.855,0.855,0],[0.5,1,0],[0.145,0.855,0],[0,0.5,0]];shape=mxgraph.bpmn.event;html=1;verticalLabelPosition=bottom;labelBackgroundColor=#ffffff;verticalAlign=top;align=center;perimeter=ellipsePerimeter;outlineConnect=0;aspect=fixed;outline=standard;symbol=general;" vertex="1" parent="1">
          <mxGeometry x="110" y="505" width="50" height="50" as="geometry" />
        </mxCell>
        <mxCell id="YpoTtZVR7BKUe61PlGft-80" value="" style="points=[[0.145,0.145,0],[0.5,0,0],[0.855,0.145,0],[1,0.5,0],[0.855,0.855,0],[0.5,1,0],[0.145,0.855,0],[0,0.5,0]];shape=mxgraph.bpmn.event;html=1;verticalLabelPosition=bottom;labelBackgroundColor=#ffffff;verticalAlign=top;align=center;perimeter=ellipsePerimeter;outlineConnect=0;aspect=fixed;outline=end;symbol=terminate2;" vertex="1" parent="1">
          <mxGeometry x="720" y="295" width="50" height="50" as="geometry" />
        </mxCell>
        <mxCell id="YpoTtZVR7BKUe61PlGft-81" value="" style="points=[[0.145,0.145,0],[0.5,0,0],[0.855,0.145,0],[1,0.5,0],[0.855,0.855,0],[0.5,1,0],[0.145,0.855,0],[0,0.5,0]];shape=mxgraph.bpmn.event;html=1;verticalLabelPosition=bottom;labelBackgroundColor=#ffffff;verticalAlign=top;align=center;perimeter=ellipsePerimeter;outlineConnect=0;aspect=fixed;outline=end;symbol=terminate2;" vertex="1" parent="1">
          <mxGeometry x="720" y="500" width="50" height="50" as="geometry" />
        </mxCell>
      </root>
    </mxGraphModel>
  </diagram>
</mxfile>
